<svg width="12" height="7" viewBox="0 0 12 7" fill="none" xmlns="http://www.w3.org/2000/svg">
<path d="M5.77907 6.97259C5.65148 6.97259 5.52771 6.94867 5.40778 6.90082C5.28784 6.85297 5.18832 6.78918 5.10921 6.70943L0.707252 2.30748C0.531812 2.13204 0.444092 1.90875 0.444092 1.63761C0.444092 1.36648 0.531812 1.14319 0.707252 0.96775C0.882692 0.79231 1.10598 0.70459 1.37712 0.70459C1.64825 0.70459 1.87154 0.79231 2.04698 0.96775L5.77907 4.69984L9.51117 0.96775C9.68661 0.79231 9.90989 0.70459 10.181 0.70459C10.4522 0.70459 10.6755 0.79231 10.8509 0.96775C11.0263 1.14319 11.1141 1.36648 11.1141 1.63761C11.1141 1.90875 11.0263 2.13204 10.8509 2.30748L6.44893 6.70943C6.35324 6.80513 6.24957 6.87307 6.13793 6.91326C6.02628 6.95345 5.90666 6.97323 5.77907 6.97259Z" fill="#BEBEBE"/>
</svg>
