<svg width="16" height="8" viewBox="0 0 16 8" fill="none" xmlns="http://www.w3.org/2000/svg">
<path fill-rule="evenodd" clip-rule="evenodd" d="M8.73664 7.70701C8.51715 7.89448 8.21949 7.99979 7.90913 7.99979C7.59876 7.99979 7.30111 7.89448 7.08162 7.70701L0.460354 2.05001C0.348563 1.95776 0.259395 1.84742 0.198053 1.72541C0.136711 1.60341 0.104422 1.47219 0.103072 1.33941C0.101721 1.20663 0.131336 1.07495 0.190187 0.952054C0.249039 0.829157 0.335949 0.717505 0.445846 0.623612C0.555743 0.529719 0.686426 0.455466 0.830271 0.405185C0.974115 0.354904 1.12824 0.329603 1.28365 0.330757C1.43906 0.331911 1.59265 0.359497 1.73545 0.411906C1.87825 0.464315 2.00741 0.540497 2.11538 0.636007L7.90913 5.58601L13.7029 0.636007C13.9236 0.453849 14.2193 0.353055 14.5262 0.355333C14.8331 0.357611 15.1266 0.46278 15.3436 0.648188C15.5607 0.833596 15.6838 1.08441 15.6864 1.34661C15.6891 1.6088 15.5711 1.86141 15.3579 2.05001L8.73664 7.70701Z" fill="#919191"/>
</svg>
