<svg width="17" height="10" viewBox="0 0 17 10" fill="none" xmlns="http://www.w3.org/2000/svg">
<path d="M8.34717 9.5454C8.15287 9.5454 7.96439 9.50896 7.78174 9.4361C7.59909 9.36323 7.44753 9.26608 7.32705 9.14464L0.623417 2.441C0.356243 2.17382 0.222656 1.83378 0.222656 1.42088C0.222656 1.00797 0.356243 0.667934 0.623417 0.40076C0.890591 0.133586 1.23063 0 1.64354 0C2.05644 0 2.39648 0.133586 2.66366 0.40076L8.34717 6.08428L14.0307 0.40076C14.2979 0.133586 14.6379 0 15.0508 0C15.4637 0 15.8038 0.133586 16.0709 0.40076C16.3381 0.667934 16.4717 1.00797 16.4717 1.42088C16.4717 1.83378 16.3381 2.17382 16.0709 2.441L9.36729 9.14464C9.22156 9.29037 9.06369 9.39384 8.89367 9.45504C8.72365 9.51625 8.54148 9.54637 8.34717 9.5454Z" fill="black"/>
</svg>
