<svg width="14" height="8" viewBox="0 0 14 8" fill="none" xmlns="http://www.w3.org/2000/svg">
<path fill-rule="evenodd" clip-rule="evenodd" d="M7.70685 7.707C7.51933 7.89447 7.26502 7.99979 6.99985 7.99979C6.73469 7.99979 6.48038 7.89447 6.29285 7.707L0.635855 2.05C0.540345 1.95775 0.464162 1.84741 0.411753 1.7254C0.359344 1.6034 0.331758 1.47218 0.330604 1.3394C0.32945 1.20662 0.354752 1.07494 0.405033 0.952046C0.455314 0.82915 0.529567 0.717497 0.62346 0.623604C0.717353 0.529712 0.829004 0.455459 0.951901 0.405178C1.0748 0.354897 1.20648 0.329595 1.33926 0.330749C1.47204 0.331903 1.60325 0.359489 1.72526 0.411898C1.84726 0.464307 1.95761 0.540489 2.04985 0.635999L6.99985 5.586L11.9499 0.635999C12.1385 0.453841 12.3911 0.353047 12.6533 0.355325C12.9155 0.357604 13.1663 0.462772 13.3517 0.648181C13.5371 0.833589 13.6423 1.0844 13.6445 1.3466C13.6468 1.6088 13.546 1.8614 13.3639 2.05L7.70685 7.707Z" fill="#919191"/>
</svg>
